<svg width="463" height="463" viewBox="0 0 463 463" fill="none" xmlns="http://www.w3.org/2000/svg">
<path d="M154.566 156.029L166.509 146.321H261.252L308.251 176.938V215.77L267.966 246.388H212.016L204.555 241.16L212.016 234.44H263.49L296.314 209.049V180.672L259.76 156.029H154.566Z" fill="#1020D8"/>
<path d="M177.699 277.753L154.566 255.752V156.029M154.566 156.029L166.509 146.321H261.252L308.251 176.938V215.77L267.966 246.388H212.016L204.555 241.16L212.016 234.44H263.49L296.315 209.049V180.672L259.76 156.029H154.566Z" stroke="url(#paint0_linear_136_85)" stroke-linecap="round"/>
<g filter="url(#filter0_f_136_85)">
<path d="M177.699 277.753L154.194 255.379V156.029M154.194 156.029L166.509 146.321H261.252L308.251 176.938V215.77L267.966 246.388H212.016L204.555 241.16L212.016 234.44H263.49L296.315 209.049V180.672L259.76 156.029H154.194Z" stroke="url(#paint1_linear_136_85)" stroke-width="2" stroke-linecap="round"/>
</g>
<path fill-rule="evenodd" clip-rule="evenodd" d="M187.397 280.739L182.175 276.258V173.951H251.554L275.427 189.633V201.582L253.792 216.517H211.27L193.365 229.212V276.258L187.397 280.739ZM194.857 184.406V212.663C194.857 213.915 196.304 214.611 197.281 213.829L205.639 207.136C205.903 206.924 206.232 206.809 206.571 206.809H246.61C246.915 206.809 247.212 206.716 247.462 206.542L262.476 196.087C263.329 195.493 263.329 194.229 262.476 193.635L247.462 183.18C247.212 183.006 246.915 182.912 246.61 182.912H196.349C195.525 182.912 194.857 183.581 194.857 184.406Z" fill="#1020D8" stroke="url(#paint2_linear_136_85)"/>
<g filter="url(#filter1_f_136_85)">
<path d="M182.175 277.005L187.397 281.486L193.365 277.005V229.959L211.27 217.264H253.792L275.427 202.329V190.38L251.554 174.698H182.175V277.005Z" stroke="url(#paint3_linear_136_85)" stroke-width="2"/>
</g>
<g filter="url(#filter2_f_136_85)">
<path d="M194.111 184.932V213.869C194.111 214.936 195.345 215.529 196.177 214.863L204.953 207.835C205.179 207.654 205.459 207.556 205.748 207.556H245.933C246.193 207.556 246.446 207.476 246.66 207.328L261.99 196.652C262.717 196.146 262.717 195.069 261.99 194.563L246.66 183.887C246.446 183.739 246.193 183.659 245.933 183.659H195.383C194.681 183.659 194.111 184.229 194.111 184.932Z" stroke="url(#paint4_linear_136_85)" stroke-width="2"/>
</g>
<mask id="path-7-inside-1_136_85" fill="white">
<path d="M304.855 367.276C271.98 382.467 235.187 387.033 199.596 380.337C164.005 373.642 131.387 356.019 106.28 329.92L117.485 319.143C140.35 342.912 170.057 358.962 202.471 365.059C234.885 371.157 268.393 366.999 298.334 353.164L304.855 367.276Z"/>
</mask>
<path d="M304.855 367.276C271.98 382.467 235.187 387.033 199.596 380.337C164.005 373.642 131.387 356.019 106.28 329.92L117.485 319.143C140.35 342.912 170.057 358.962 202.471 365.059C234.885 371.157 268.393 366.999 298.334 353.164L304.855 367.276Z" fill="white" fill-opacity="0.1" stroke="white" stroke-opacity="0.22" stroke-width="2" mask="url(#path-7-inside-1_136_85)"/>
<mask id="path-8-inside-2_136_85" fill="white">
<path d="M296.788 349.821C273.667 360.504 248.269 365.323 222.842 363.851C197.414 362.379 172.742 354.662 151.009 341.381C129.276 328.101 111.152 309.668 98.2427 287.713C85.3331 265.759 78.0356 240.961 76.9962 215.514L79.3216 215.419C80.3453 240.483 87.5332 264.909 100.249 286.534C112.965 308.158 130.816 326.315 152.222 339.396C173.629 352.476 197.931 360.078 222.976 361.528C248.022 362.978 273.038 358.231 295.811 347.708L296.788 349.821Z"/>
</mask>
<path d="M296.788 349.821C273.667 360.504 248.269 365.323 222.842 363.851C197.414 362.379 172.742 354.662 151.009 341.381C129.276 328.101 111.152 309.668 98.2427 287.713C85.3331 265.759 78.0356 240.961 76.9962 215.514L79.3216 215.419C80.3453 240.483 87.5332 264.909 100.249 286.534C112.965 308.158 130.816 326.315 152.222 339.396C173.629 352.476 197.931 360.078 222.976 361.528C248.022 362.978 273.038 358.231 295.811 347.708L296.788 349.821Z" fill="white" fill-opacity="0.1" stroke="white" stroke-opacity="0.22" stroke-width="2" mask="url(#path-8-inside-2_136_85)"/>
<mask id="path-9-inside-3_136_85" fill="white">
<path d="M322.067 83.669C342.714 98.582 359.365 118.355 370.547 141.238C381.729 164.12 387.096 189.406 386.175 214.858C385.253 240.309 378.07 265.141 365.262 287.155C352.454 309.169 334.415 327.685 312.744 341.066L311.521 339.086C332.867 325.906 350.634 307.668 363.25 285.985C375.866 264.302 382.941 239.843 383.849 214.774C384.757 189.704 379.47 164.798 368.456 142.259C357.442 119.72 341.041 100.244 320.704 85.5554L322.067 83.669Z"/>
</mask>
<path d="M322.067 83.669C342.714 98.582 359.365 118.355 370.547 141.238C381.729 164.12 387.096 189.406 386.175 214.858C385.253 240.309 378.07 265.141 365.262 287.155C352.454 309.169 334.415 327.685 312.744 341.066L311.521 339.086C332.867 325.906 350.634 307.668 363.25 285.985C375.866 264.302 382.941 239.843 383.849 214.774C384.757 189.704 379.47 164.798 368.456 142.259C357.442 119.72 341.041 100.244 320.704 85.5554L322.067 83.669Z" fill="white" fill-opacity="0.1" stroke="white" stroke-opacity="0.22" stroke-width="2" mask="url(#path-9-inside-3_136_85)"/>
<mask id="path-10-inside-4_136_85" fill="white">
<path d="M77.1889 193.656C79.7591 168.318 88.5371 144.004 102.746 122.867C116.954 101.73 136.155 84.4217 158.649 72.4744C181.142 60.527 206.235 54.3092 231.704 54.3712C257.174 54.4332 282.236 60.7732 304.671 72.83L303.569 74.8798C281.471 63.0042 256.786 56.7594 231.699 56.6983C206.612 56.6372 181.896 62.7617 159.74 74.5296C137.585 86.2974 118.672 103.346 104.677 124.165C90.682 144.985 82.0359 168.933 79.5043 193.891L77.1889 193.656Z"/>
</mask>
<path d="M77.1889 193.656C79.7591 168.318 88.5371 144.004 102.746 122.867C116.954 101.73 136.155 84.4217 158.649 72.4744C181.142 60.527 206.235 54.3092 231.704 54.3712C257.174 54.4332 282.236 60.7732 304.671 72.83L303.569 74.8798C281.471 63.0042 256.786 56.7594 231.699 56.6983C206.612 56.6372 181.896 62.7617 159.74 74.5296C137.585 86.2974 118.672 103.346 104.677 124.165C90.682 144.985 82.0359 168.933 79.5043 193.891L77.1889 193.656Z" fill="white" fill-opacity="0.1" stroke="white" stroke-opacity="0.22" stroke-width="2" mask="url(#path-10-inside-4_136_85)"/>
<mask id="path-11-inside-5_136_85" fill="white">
<path d="M131.405 321.953C108.88 301.978 92.8592 275.711 85.4112 246.542C77.9633 217.373 79.4297 186.641 89.6212 158.314L105.773 164.124C96.7426 189.223 95.4433 216.452 102.042 242.296C108.641 268.14 122.836 291.414 142.793 309.112L131.405 321.953Z"/>
</mask>
<path d="M131.405 321.953C108.88 301.978 92.8592 275.711 85.4112 246.542C77.9633 217.373 79.4297 186.641 89.6212 158.314L105.773 164.124C96.7426 189.223 95.4433 216.452 102.042 242.296C108.641 268.14 122.836 291.414 142.793 309.112L131.405 321.953Z" fill="white" fill-opacity="0.1" stroke="white" stroke-opacity="0.22" stroke-width="2" mask="url(#path-11-inside-5_136_85)"/>
<mask id="path-12-inside-6_136_85" fill="white">
<path d="M327.542 324.238C304.529 343.649 276.226 355.718 246.287 358.885C216.347 362.053 186.145 356.175 159.58 342.01L167.656 326.865C191.194 339.416 217.953 344.624 244.481 341.817C271.008 339.01 296.085 328.318 316.474 311.119L327.542 324.238Z"/>
</mask>
<path d="M327.542 324.238C304.529 343.649 276.226 355.718 246.287 358.885C216.347 362.053 186.145 356.175 159.58 342.01L167.656 326.865C191.194 339.416 217.953 344.624 244.481 341.817C271.008 339.01 296.085 328.318 316.474 311.119L327.542 324.238Z" fill="white" fill-opacity="0.1" stroke="white" stroke-opacity="0.22" stroke-width="2" mask="url(#path-12-inside-6_136_85)"/>
<mask id="path-13-inside-7_136_85" fill="white">
<path d="M358.918 131.91C374.813 157.477 382.679 187.221 381.501 217.303C380.323 247.385 370.156 276.423 352.31 300.669L338.486 290.496C354.297 269.013 363.306 243.285 364.35 216.632C365.393 189.979 358.424 163.625 344.341 140.972L358.918 131.91Z"/>
</mask>
<path d="M358.918 131.91C374.813 157.477 382.679 187.221 381.501 217.303C380.323 247.385 370.156 276.423 352.31 300.669L338.486 290.496C354.297 269.013 363.306 243.285 364.35 216.632C365.393 189.979 358.424 163.625 344.341 140.972L358.918 131.91Z" fill="white" fill-opacity="0.1" stroke="white" stroke-opacity="0.22" stroke-width="2" mask="url(#path-13-inside-7_136_85)"/>
<mask id="path-14-inside-8_136_85" fill="white">
<path d="M131.255 98.1485C153.765 78.1571 181.751 65.3712 211.6 61.4411C241.449 57.511 271.791 62.6172 298.709 76.1005L291.022 91.4463C267.171 79.4997 240.288 74.9756 213.841 78.4577C187.394 81.9399 162.598 93.2685 142.653 110.981L131.255 98.1485Z"/>
</mask>
<path d="M131.255 98.1485C153.765 78.1571 181.751 65.3712 211.6 61.4411C241.449 57.511 271.791 62.6172 298.709 76.1005L291.022 91.4463C267.171 79.4997 240.288 74.9756 213.841 78.4577C187.394 81.9399 162.598 93.2685 142.653 110.981L131.255 98.1485Z" fill="white" fill-opacity="0.1" stroke="white" stroke-opacity="0.22" stroke-width="2" mask="url(#path-14-inside-8_136_85)"/>
<mask id="path-15-inside-9_136_85" fill="white">
<path d="M155.153 316.754C138.799 305.097 125.349 289.832 115.842 272.143C106.336 254.453 101.029 234.813 100.332 214.743L109.84 214.413C110.486 233.024 115.407 251.236 124.222 267.64C133.038 284.043 145.511 298.198 160.675 309.007L155.153 316.754Z"/>
</mask>
<path d="M155.153 316.754C138.799 305.097 125.349 289.832 115.842 272.143C106.336 254.453 101.029 234.813 100.332 214.743L109.84 214.413C110.486 233.024 115.407 251.236 124.222 267.64C133.038 284.043 145.511 298.198 160.675 309.007L155.153 316.754Z" fill="white" fill-opacity="0.1" stroke="white" stroke-opacity="0.22" stroke-width="2" mask="url(#path-15-inside-9_136_85)"/>
<mask id="path-16-inside-10_136_85" fill="white">
<path d="M119.457 143.28C129.715 126.015 143.81 111.342 160.649 100.399C177.488 89.4553 196.621 82.5343 216.565 80.1719L217.684 89.6189C199.19 91.8095 181.449 98.2273 165.833 108.375C150.218 118.523 137.149 132.129 127.636 148.139L119.457 143.28Z"/>
</mask>
<path d="M119.457 143.28C129.715 126.015 143.81 111.342 160.649 100.399C177.488 89.4553 196.621 82.5343 216.565 80.1719L217.684 89.6189C199.19 91.8095 181.449 98.2273 165.833 108.375C150.218 118.523 137.149 132.129 127.636 148.139L119.457 143.28Z" fill="white" fill-opacity="0.1" stroke="white" stroke-opacity="0.22" stroke-width="2" mask="url(#path-16-inside-10_136_85)"/>
<mask id="path-17-inside-11_136_85" fill="white">
<path d="M327.303 121.184C341.064 135.811 351.274 153.409 357.141 172.615C363.008 191.821 364.376 212.119 361.138 231.938L351.749 230.405C354.751 212.026 353.483 193.203 348.042 175.394C342.602 157.584 333.134 141.266 320.374 127.702L327.303 121.184Z"/>
</mask>
<path d="M327.303 121.184C341.064 135.811 351.274 153.409 357.141 172.615C363.008 191.821 364.376 212.119 361.138 231.938L351.749 230.405C354.751 212.026 353.483 193.203 348.042 175.394C342.602 157.584 333.134 141.266 320.374 127.702L327.303 121.184Z" fill="white" fill-opacity="0.1" stroke="white" stroke-opacity="0.22" stroke-width="2" mask="url(#path-17-inside-11_136_85)"/>
<mask id="path-18-inside-12_136_85" fill="white">
<path d="M321.963 303.225C307.556 317.216 290.121 327.704 271.01 333.875C251.898 340.047 231.623 341.737 211.753 338.815L213.137 329.403C231.562 332.113 250.364 330.546 268.086 324.823C285.808 319.1 301.975 309.375 315.334 296.401L321.963 303.225Z"/>
</mask>
<path d="M321.963 303.225C307.556 317.216 290.121 327.704 271.01 333.875C251.898 340.047 231.623 341.737 211.753 338.815L213.137 329.403C231.562 332.113 250.364 330.546 268.086 324.823C285.808 319.1 301.975 309.375 315.334 296.401L321.963 303.225Z" fill="white" fill-opacity="0.1" stroke="white" stroke-opacity="0.22" stroke-width="2" mask="url(#path-18-inside-12_136_85)"/>
<mask id="path-19-inside-13_136_85" fill="white">
<path d="M305.205 51.0301C326.315 60.8899 345.233 74.8851 360.836 92.1868C376.44 109.489 388.413 129.745 396.047 151.757C403.681 173.769 406.82 197.089 405.278 220.336C403.737 243.583 397.546 266.284 387.072 287.096L373.185 280.108C382.723 261.154 388.361 240.479 389.765 219.308C391.169 198.136 388.311 176.898 381.358 156.851C374.406 136.804 363.502 118.355 349.291 102.598C335.08 86.8406 317.852 74.0948 298.626 65.1152L305.205 51.0301Z"/>
</mask>
<path d="M305.205 51.0301C326.315 60.8899 345.233 74.8851 360.836 92.1868C376.44 109.489 388.413 129.745 396.047 151.757C403.681 173.769 406.82 197.089 405.278 220.336C403.737 243.583 397.546 266.284 387.072 287.096L373.185 280.108C382.723 261.154 388.361 240.479 389.765 219.308C391.169 198.136 388.311 176.898 381.358 156.851C374.406 136.804 363.502 118.355 349.291 102.598C335.08 86.8406 317.852 74.0948 298.626 65.1152L305.205 51.0301Z" fill="white" fill-opacity="0.1" stroke="white" stroke-opacity="0.22" stroke-width="2" mask="url(#path-19-inside-13_136_85)"/>
<mask id="path-20-inside-14_136_85" fill="white">
<path d="M56.9285 211.582C56.3971 168.237 72.0519 126.251 100.833 93.8331C129.613 61.4153 169.451 40.8961 212.557 36.2868L214.21 51.7445C174.952 55.9423 138.671 74.6298 112.459 104.154C86.2476 133.678 71.9902 171.915 72.4742 211.392L56.9285 211.582Z"/>
</mask>
<path d="M56.9285 211.582C56.3971 168.237 72.0519 126.251 100.833 93.8331C129.613 61.4153 169.451 40.8961 212.557 36.2868L214.21 51.7445C174.952 55.9423 138.671 74.6298 112.459 104.154C86.2476 133.678 71.9902 171.915 72.4742 211.392L56.9285 211.582Z" fill="white" fill-opacity="0.1" stroke="white" stroke-opacity="0.22" stroke-width="2" mask="url(#path-20-inside-14_136_85)"/>
<defs>
<filter id="filter0_f_136_85" x="149.994" y="142.121" width="162.457" height="139.832" filterUnits="userSpaceOnUse" color-interpolation-filters="sRGB">
<feFlood flood-opacity="0" result="BackgroundImageFix"/>
<feBlend mode="normal" in="SourceGraphic" in2="BackgroundImageFix" result="shape"/>
<feGaussianBlur stdDeviation="1.6" result="effect1_foregroundBlur_136_85"/>
</filter>
<filter id="filter1_f_136_85" x="177.975" y="170.498" width="101.651" height="115.469" filterUnits="userSpaceOnUse" color-interpolation-filters="sRGB">
<feFlood flood-opacity="0" result="BackgroundImageFix"/>
<feBlend mode="normal" in="SourceGraphic" in2="BackgroundImageFix" result="shape"/>
<feGaussianBlur stdDeviation="1.6" result="effect1_foregroundBlur_136_85"/>
</filter>
<filter id="filter2_f_136_85" x="189.911" y="179.459" width="76.8241" height="39.8868" filterUnits="userSpaceOnUse" color-interpolation-filters="sRGB">
<feFlood flood-opacity="0" result="BackgroundImageFix"/>
<feBlend mode="normal" in="SourceGraphic" in2="BackgroundImageFix" result="shape"/>
<feGaussianBlur stdDeviation="1.6" result="effect1_foregroundBlur_136_85"/>
</filter>
<linearGradient id="paint0_linear_136_85" x1="152.335" y1="212.036" x2="308.251" y2="212.036" gradientUnits="userSpaceOnUse">
<stop stop-color="#1FD3E7"/>
<stop offset="1" stop-color="#F100E5"/>
</linearGradient>
<linearGradient id="paint1_linear_136_85" x1="152.335" y1="212.036" x2="308.251" y2="212.036" gradientUnits="userSpaceOnUse">
<stop stop-color="#1FD3E7"/>
<stop offset="1" stop-color="#F100E5"/>
</linearGradient>
<linearGradient id="paint2_linear_136_85" x1="194.857" y1="199.341" x2="264.236" y2="199.341" gradientUnits="userSpaceOnUse">
<stop stop-color="#1FD3E7"/>
<stop offset="1" stop-color="#F100E5"/>
</linearGradient>
<linearGradient id="paint3_linear_136_85" x1="182.175" y1="227.719" x2="275.427" y2="227.719" gradientUnits="userSpaceOnUse">
<stop stop-color="#1FD3E7"/>
<stop offset="1" stop-color="#F100E5"/>
</linearGradient>
<linearGradient id="paint4_linear_136_85" x1="194.111" y1="200.088" x2="263.49" y2="200.088" gradientUnits="userSpaceOnUse">
<stop stop-color="#1FD3E7"/>
<stop offset="1" stop-color="#F100E5"/>
</linearGradient>
</defs>
</svg>
