<svg width="220" height="220" viewBox="0 0 220 220" fill="none" xmlns="http://www.w3.org/2000/svg">
<g filter="url(#filter0_d_90_13)">
<path d="M39.107 195.554L8 166V32.0409M8 32.0409L24.0598 19H151.459L214.657 60.129V112.293L160.488 153.422H85.2517L75.2202 146.4L85.2517 137.371H154.469L198.607 103.264V65.1447L149.453 32.0409H8Z" stroke="url(#paint0_linear_90_13)" stroke-linecap="round"/>
<g filter="url(#filter1_f_90_13)">
<path d="M39.107 195.554L7.5 165.5V32.0409M7.5 32.0409L24.0598 19H151.459L214.657 60.129V112.293L160.488 153.422H85.2517L75.2202 146.4L85.2517 137.371H154.469L198.607 103.264V65.1447L149.453 32.0409H7.5Z" stroke="url(#paint1_linear_90_13)" stroke-width="2" stroke-linecap="round"/>
</g>
<path fill-rule="evenodd" clip-rule="evenodd" d="M52.1479 199.566L45.1259 193.547V56.1164H138.418L170.519 77.1825V93.2328L141.428 113.296H84.2485L60.173 130.349V193.547L52.1479 199.566ZM62.1793 70.1604V108.118C62.1793 109.801 64.1253 110.736 65.4389 109.685L76.677 100.694C77.0327 100.41 77.4747 100.255 77.9303 100.255H131.77C132.18 100.255 132.58 100.129 132.916 99.8955L153.104 85.8515C154.252 85.0532 154.252 83.3557 153.104 82.5575L132.916 68.5135C132.58 68.2795 132.18 68.1541 131.77 68.1541H64.1856C63.0776 68.1541 62.1793 69.0524 62.1793 70.1604Z" stroke="url(#paint2_linear_90_13)"/>
<g filter="url(#filter2_f_90_13)">
<path d="M45.1259 194.551L52.1479 200.569L60.173 194.551V131.352L84.2485 114.299H141.428L170.519 94.2359V78.1856L138.418 57.1195H45.1259V194.551Z" stroke="url(#paint3_linear_90_13)" stroke-width="2"/>
</g>
<g filter="url(#filter3_f_90_13)">
<path d="M61.1761 70.1573V111.215C61.1761 112.054 62.1461 112.52 62.8008 111.996L75.9494 101.477C76.1267 101.335 76.347 101.258 76.5741 101.258H131.083C131.287 101.258 131.486 101.195 131.654 101.079L153.289 86.0285C153.861 85.6307 153.861 84.7846 153.289 84.3867L131.654 69.3364C131.486 69.2198 131.287 69.1573 131.083 69.1573H62.1761C61.6239 69.1573 61.1761 69.605 61.1761 70.1573Z" stroke="url(#paint4_linear_90_13)" stroke-width="2"/>
</g>
</g>
<defs>
<filter id="filter0_d_90_13" x="-4" y="0" width="228" height="228" filterUnits="userSpaceOnUse" color-interpolation-filters="sRGB">
<feFlood flood-opacity="0" result="BackgroundImageFix"/>
<feColorMatrix in="SourceAlpha" type="matrix" values="0 0 0 0 0 0 0 0 0 0 0 0 0 0 0 0 0 0 127 0" result="hardAlpha"/>
<feOffset dy="4"/>
<feGaussianBlur stdDeviation="2"/>
<feComposite in2="hardAlpha" operator="out"/>
<feColorMatrix type="matrix" values="0 0 0 0 0 0 0 0 0 0 0 0 0 0 0 0 0 0 0.25 0"/>
<feBlend mode="normal" in2="BackgroundImageFix" result="effect1_dropShadow_90_13"/>
<feBlend mode="normal" in="SourceGraphic" in2="effect1_dropShadow_90_13" result="shape"/>
</filter>
<filter id="filter1_f_90_13" x="3.3" y="14.8" width="215.557" height="184.954" filterUnits="userSpaceOnUse" color-interpolation-filters="sRGB">
<feFlood flood-opacity="0" result="BackgroundImageFix"/>
<feBlend mode="normal" in="SourceGraphic" in2="BackgroundImageFix" result="shape"/>
<feGaussianBlur stdDeviation="1.6" result="effect1_foregroundBlur_90_13"/>
</filter>
<filter id="filter2_f_90_13" x="40.9259" y="52.9195" width="133.793" height="152.131" filterUnits="userSpaceOnUse" color-interpolation-filters="sRGB">
<feFlood flood-opacity="0" result="BackgroundImageFix"/>
<feBlend mode="normal" in="SourceGraphic" in2="BackgroundImageFix" result="shape"/>
<feGaussianBlur stdDeviation="1.6" result="effect1_foregroundBlur_90_13"/>
</filter>
<filter id="filter3_f_90_13" x="56.9761" y="64.9573" width="100.941" height="51.4615" filterUnits="userSpaceOnUse" color-interpolation-filters="sRGB">
<feFlood flood-opacity="0" result="BackgroundImageFix"/>
<feBlend mode="normal" in="SourceGraphic" in2="BackgroundImageFix" result="shape"/>
<feGaussianBlur stdDeviation="1.6" result="effect1_foregroundBlur_90_13"/>
</filter>
<linearGradient id="paint0_linear_90_13" x1="5" y1="107.277" x2="214.657" y2="107.277" gradientUnits="userSpaceOnUse">
<stop stop-color="#1FD3E7"/>
<stop offset="1" stop-color="#F100E5"/>
</linearGradient>
<linearGradient id="paint1_linear_90_13" x1="5" y1="107.277" x2="214.657" y2="107.277" gradientUnits="userSpaceOnUse">
<stop stop-color="#1FD3E7"/>
<stop offset="1" stop-color="#F100E5"/>
</linearGradient>
<linearGradient id="paint2_linear_90_13" x1="62.1793" y1="90.2234" x2="155.472" y2="90.2234" gradientUnits="userSpaceOnUse">
<stop stop-color="#1FD3E7"/>
<stop offset="1" stop-color="#F100E5"/>
</linearGradient>
<linearGradient id="paint3_linear_90_13" x1="45.1259" y1="128.343" x2="170.519" y2="128.343" gradientUnits="userSpaceOnUse">
<stop stop-color="#1FD3E7"/>
<stop offset="1" stop-color="#F100E5"/>
</linearGradient>
<linearGradient id="paint4_linear_90_13" x1="61.1761" y1="91.2265" x2="154.469" y2="91.2265" gradientUnits="userSpaceOnUse">
<stop stop-color="#1FD3E7"/>
<stop offset="1" stop-color="#F100E5"/>
</linearGradient>
</defs>
</svg>
